<?xml version="1.0" encoding="utf-8"?>
<!-- Generator: Adobe Illustrator 19.0.0, SVG Export Plug-In . SVG Version: 6.00 Build 0)  -->
<svg version="1.1" id="Camada_1" xmlns="http://www.w3.org/2000/svg" xmlns:xlink="http://www.w3.org/1999/xlink" x="0px" y="0px"
	 viewBox="71.9 241.6 474.1 354.2" style="enable-background:new 71.9 241.6 474.1 354.2;" xml:space="preserve">
<style type="text/css">
	.st0{fill:#664C50;}
	.st1{fill:#76C6F0;}
	.st2{fill:#1B99BF;}
	.st3{fill:#18B5E3;}
	.st4{fill:#22B1E7;}
	.st5{fill:#0E95CF;}
	.st6{fill:#39A4DD;}
	.st7{fill:#148EB9;}
	.st8{fill:#2BBCE9;}
	.st9{fill:#26AEDB;}
	.st10{fill:#1392BA;}
	.st11{fill:none;}
	.st12{fill:#139CD1;}
	.st13{fill:#0F96C3;}
	.st14{fill:#3FB7EA;}
	.st15{fill:#2BADE4;}
	.st16{fill:#169CCA;}
	.st17{fill:#48B4E3;}
	.st18{fill:#6CBEEB;}
	.st19{fill:#63B6E6;}
	.st20{fill:#7FC8F0;}
	.st21{fill:#91D4F6;}
	.st22{fill:#71C4EF;}
	.st23{fill:#22AADF;}
	.st24{fill:#1593C2;}
	.st25{fill:#21AAD8;}
	.st26{fill:#179AD4;}
	.st27{fill:#2AA5DE;}
	.st28{fill:#43BBE3;}
	.st29{fill:#32B9E3;}
	.st30{fill:#53BEEE;}
	.st31{fill:#79C8F1;}
	.st32{fill:#91CCF1;}
	.st33{fill:#99D7F7;}
	.st34{fill:#31BAEB;}
	.st35{fill:#2ABBE7;}
	.st36{fill:#1CB4E0;}
	.st37{fill:#33BCEC;}
	.st38{fill:#36A3D8;}
	.st39{fill:#64C0EE;}
</style>
<g id="Camada_1_1_">
	<g>
		<polygon class="st0" points="275.5,427.3 228.5,577.5 236.6,581.8 303.7,434.7 		"/>
		<polygon class="st0" points="187.3,555 236.6,581.8 202.2,591.4 		"/>
	</g>
	<g>
		<path class="st1" d="M546,445.5l-25.5-2.9l-47.1-49.3c0,0,59.7,5.5,69,29.9C542.4,423.1,546.5,432.8,546,445.5"/>
		<path class="st2" d="M78.3,414l5.3-2.1l44.8-18l-30-62.3C98.5,331.6,56.2,360.7,78.3,414z"/>
		<path class="st3" d="M112.3,323.6l43.8,18l-13,50.9l-14.7,1.4l-30-62.3C98.5,331.6,106.9,325.4,112.3,323.6z"/>
		<path class="st4" d="M149.4,317.5c0,0-23.3-1.8-37.1,6.2l43.8,18L149.4,317.5z"/>
		<polygon class="st5" points="169.2,310.9 156.1,341.6 149.4,317.5 152.2,309.1 		"/>
		<path class="st6" d="M183,260.3l-13.8,50.6l-17-1.7C152.2,309.1,157.8,281.2,183,260.3z"/>
		<polygon class="st7" points="185.5,335.6 169.2,310.9 156.1,341.6 		"/>
		<polygon class="st8" points="188.6,389.1 185.5,335.6 156.1,341.6 		"/>
		<polygon class="st9" points="143.1,392.5 152.5,391.8 162.5,401.9 188.6,389.1 156.1,341.6 		"/>
		<polygon class="st10" points="172.6,412.2 162.5,401.9 188.6,389.1 		"/>
		<line class="st11" x1="134.7" y1="442.7" x2="122.2" y2="450"/>
		<polygon class="st12" points="210.3,422.4 188.6,389.1 172.6,412.2 198.2,438 210.9,436.7 		"/>
		<polygon class="st13" points="223.5,435.7 210.3,422.4 210.9,436.7 		"/>
		<polygon class="st14" points="300,406.4 275.9,434.3 267.6,432.1 238,434.7 224.7,405.2 		"/>
		<polygon class="st15" points="215.6,389 224.7,405.2 210.3,422.4 		"/>
		<polygon class="st16" points="185.5,335.6 215.6,389 188.6,389.1 		"/>
		<polygon class="st17" points="259.8,328.7 224.7,405.2 185.5,335.6 		"/>
		<polygon class="st18" points="240.5,273.1 259.8,328.7 185.5,335.6 204.6,248.3 		"/>
		<path class="st19" d="M183,260.3c0,0,8.6-7.1,21.7-12l-19.2,87.3l-16.2-24.7L183,260.3z"/>
		<path class="st20" d="M306.1,295l-23.5-40.2c0,0-34.4-24.6-77.9-6.5l35.9,24.8L306.1,295z"/>
		<polygon class="st21" points="293.7,343.9 306.1,295 240.5,273.1 259.8,328.7 		"/>
		<polygon class="st22" points="300,406.4 293.7,343.9 259.8,328.7 224.7,405.2 		"/>
		<polygon class="st23" points="349.6,405.5 293.7,343.9 300,406.4 		"/>
		<polygon class="st24" points="301.5,441.2 300,406.4 275.9,434.3 		"/>
		<polygon class="st25" points="366,443.4 300,406.4 301.5,441.2 351.9,454.3 		"/>
		<polygon class="st26" points="362,456.9 366,443.4 351.9,454.3 		"/>
		<polygon class="st27" points="398.9,453 379.1,432.4 366,443.4 362,456.9 374.2,460.2 		"/>
		<polygon class="st28" points="370.4,369 293.7,343.9 349.6,405.5 		"/>
		<polygon class="st29" points="368,391.7 439.7,376.4 370.4,369 		"/>
		<polygon class="st30" points="379.1,432.4 439.7,376.4 368,391.7 		"/>
		<polygon class="st31" points="430.8,443.6 439.7,376.4 379.1,432.4 398.9,453 		"/>
		<polygon class="st32" points="451.4,437.6 430.8,443.6 439.7,376.4 473.5,393.2 444.3,452 		"/>
		<path class="st33" d="M437,327.7l2.7,48.7l33.8,16.8C473.5,393.2,485.1,340,437,327.7z"/>
		<path class="st34" d="M406.7,327.9c0,0,18.4-4.6,30.4-0.1l2.7,48.7l-69.3-7.4L406.7,327.9z"/>
		<path class="st35" d="M327.6,270.5c0,0,67.6-24.2,79.1,57.3L370.4,369l-6.5-57.3L327.6,270.5z"/>
		<polygon class="st36" points="328.6,307.3 327.6,270.5 363.9,311.8 370.4,369 		"/>
		<polygon class="st37" points="293.7,343.9 328.6,307.3 370.4,369 		"/>
		<polygon class="st38" points="327.6,270.5 309.3,280.1 306.1,295 		"/>
		<path class="st39" d="M282.6,254.8c0,0,20.7,15.3,26.7,25.3L306,295L282.6,254.8z"/>
		<polygon class="st27" points="451.4,437.6 458.3,435.7 520.5,442.5 473.5,393.2 		"/>
		<polygon class="st31" points="300,406.4 349.6,405.5 366,443.4 		"/>
		<polygon class="st16" points="370.4,369 368,391.7 379.1,432.4 366,443.4 349.6,405.5 		"/>
		<polygon class="st7" points="188.6,389.1 215.6,389 210.3,422.4 		"/>
		<polygon class="st7" points="224.7,405.2 238,434.7 223.5,435.7 210.3,422.4 		"/>
		<polygon class="st7" points="327.6,270.5 328.6,307.3 293.7,343.9 306.1,295 		"/>
	</g>
</g>
<g id="Camada_2">
</g>
</svg>
